<?xml version="1.0" encoding="utf-8"?>
<!-- Generator: Adobe Illustrator 23.0.4, SVG Export Plug-In . SVG Version: 6.00 Build 0)  -->
<svg version="1.1" id="Layer_1" xmlns="http://www.w3.org/2000/svg" xmlns:xlink="http://www.w3.org/1999/xlink" x="0px" y="0px"
	 viewBox="0 0 450 450" style="enable-background:new 0 0 450 450;" xml:space="preserve">
<g>
	<g>
		<path d="M279.1,233.4c13.5-7.6,20.5-19.3,13.9-33.8l-35.1-64c-7-11.4-14.5-21.1-30.3-21.1c-9.2,0-17.5,4.4-22.8,11.4
			c-11.4,16.2-36.4,64.5-43.4,78.1c0,0-27.4,7-31.1,7.9c-3.7,0.9-5,2-6.1,5.3s0,0,0,0l-23.7,69.7c-5.7-1.3-11.8-2.2-18-2.2
			C36.8,284.7,0,321.5,0,367.1S37.7,450,82.9,450s82.5-36.8,82.5-82.5c0-32.9-19.7-61.8-47.8-74.6l7.5-21.9l77.6,100
			c2.5,3.2,4.1,5.3,6.6,5.3s37.7,0,37.7,0c4.4,41.2,39.5,73.7,82,73.7c45.6,0,82.5-36.8,82.5-82.5s-37.7-82.5-82.9-82.5
			c-16.2,0-31.1,4.8-43.9,12.7l-28.5-36.4l6.6-18.9C262.7,242.5,265.6,240.9,279.1,233.4z M147.8,367.5c0,36-28.9,64.9-64.9,64.9
			S18,403.5,18,367.5s29.4-64.9,64.9-64.9c4.4,0,8.3,0.4,12.3,1.3l-20.6,61c-1.8,4.4,0.9,9.6,5.7,11c0.9,0.4,1.8,0.4,2.6,0.4
			c3.5,0,7-2.2,8.3-6.1l20.6-60.5C133.3,320.2,147.8,342.1,147.8,367.5z M310.5,358.8H264c1.8-14,8.3-26.8,17.5-36.4L310.5,358.8z
			 M139.5,229.4l36.8,1.3c2.6,0,5.3-0.9,7-3.1l36-43l15.4,15.4c-15.8,10.1-45.6,30.7-55.3,48.2h-46.5L139.5,229.4z M143.4,265.8H175
			c0,18,8.3,42.5,15.8,61.4L143.4,265.8z M196.1,268.4c-1.3,2.2-2.2,4.8-2.6,7.5c-1.3-7.5-1.3-13.6,0-17.5
			c5.3-13.6,39.5-37.3,59.2-49.1c2.2-1.3,3.9-3.9,4.4-6.6c0.4-2.6-0.4-5.3-2.6-7.5l-30.3-30.3c-1.8-1.8-3.9-2.6-6.1-2.6h-0.4
			c-2.6,0-4.8,1.3-6.1,3.1l-27.2,32.5c10.1-19.7,26.8-50.9,35.1-62.7c1.8-2.6,4.8-3.9,8.3-3.9c6.1,0,8.3,1.8,15.4,12.3l32.7,60.8
			c3.1,7.2-2.5,12.1-9.9,16.4C258.3,225,207.5,248.2,196.1,268.4z M211.4,277.2c1.8-3.5,5.7-7,11-11h13.2l-21.1,63.2
			C210.1,308.8,207,285.1,211.4,277.2z M223.2,358.8l26.3-77.6l21.5,27.2c-13.6,13.2-22.4,30.7-24.6,50.4H223.2z M328.5,432.5
			c-32.9,0-60.1-24.6-64.5-56.1h64.5c3.5,0,6.6-1.8,7.9-4.8c1.3-3.1,0.9-6.6-0.9-9.2L296,311.8c9.6-5.7,20.6-8.8,32.9-8.8
			c36,0,64.9,28.9,64.9,64.9S364,432.5,328.5,432.5z"/>
		<path d="M167.1,79c0,18,14.5,32.5,32.5,32.5S232,96.9,232,79s-14.5-32.5-32.5-32.5S167.1,61,167.1,79z M214.5,79
			c0,8.3-6.6,14.9-14.9,14.9s-14.9-6.6-14.9-14.9S191.2,64,199.6,64S214.5,70.6,214.5,79z"/>
	</g>
	<path d="M442.7,133.5H308.8c-3.8,0-6.9,3.1-6.9,6.9v29.8v88.7c0,3.8,3.1,6.9,6.9,6.9h133.9c3.8,0,6.9-3.1,6.9-6.9V140.4
		C449.5,136.6,446.5,133.5,442.7,133.5z M365.2,149.3h20.3v26.6h-20.3V149.3z M316.7,149.3h32.8v13.3h-32.8V149.3z M433.8,250.8
		H316.7v-72.7h32.8v5.6c0,3.8,3.1,6.9,6.9,6.9h37.8c3.8,0,6.9-3.1,6.9-6.9v-5.6h32.8V250.8z M434,163.4h-32.8v-14.1H434V163.4z"/>
	<rect x="241.7" y="250.8" width="94.7" height="15"/>
</g>
</svg>
