<?xml version="1.0" encoding="utf-8"?>
<!-- Generator: Adobe Illustrator 23.0.4, SVG Export Plug-In . SVG Version: 6.00 Build 0)  -->
<svg version="1.1" id="Layer_1" xmlns="http://www.w3.org/2000/svg" xmlns:xlink="http://www.w3.org/1999/xlink" x="0px" y="0px"
	 viewBox="0 0 450 450" style="enable-background:new 0 0 450 450;" xml:space="preserve">
<g>
	<path d="M225,250.4c-62.1,0-108.9-54.7-108.9-111.9C116.1,78.1,165,29,225,29c60.1,0,108.9,49.1,108.9,109.5
		C333.9,195.7,287.1,250.4,225,250.4z M225,54.3c-46.2,0-83.7,37.7-83.7,84.1c0,46.3,38.3,86.7,83.7,86.7
		c45.5,0,83.8-40.3,83.8-86.7C308.7,92.1,271.2,54.3,225,54.3z"/>
</g>
<g>
	<path d="M394.3,421H55.7c-7.5,0-13.6-5.7-13.6-12.6v-44.8c0-54,52.1-85.3,110.2-85.3h150.3c58.1,0,105.4,31.3,105.4,85.3v44.8
		C407.9,415.3,401.8,421,394.3,421z M69.2,395.7h311.6v-32.1c0-40.1-35.1-60-78.3-60H152.3c-43.2,0-83.1,19.9-83.1,60L69.2,395.7
		L69.2,395.7z"/>
</g>
</svg>
