<?xml version="1.0" encoding="utf-8"?>
<!-- Generator: Adobe Illustrator 23.0.4, SVG Export Plug-In . SVG Version: 6.00 Build 0)  -->
<svg version="1.1" id="Layer_1" xmlns="http://www.w3.org/2000/svg" xmlns:xlink="http://www.w3.org/1999/xlink" x="0px" y="0px"
	 viewBox="0 0 600 450" style="enable-background:new 0 0 600 450;" xml:space="preserve">
<g>
	<path d="M145.2,335.2c-21.4,0-38.7,17.2-38.7,38.3c0,21.1,17.4,38.3,38.7,38.3s38.7-17.2,38.7-38.3
		C183.9,352.3,166.5,335.2,145.2,335.2z M145.2,392.5c-10.6,0-19.4-8.6-19.4-19.2c0-10.5,8.7-19.2,19.4-19.2
		c10.6,0,19.4,8.6,19.4,19.2C164.5,384,155.9,392.5,145.2,392.5z"/>
	<path d="M464.7,335.2c-21.4,0-38.7,17.2-38.7,38.3c0,21.1,17.4,38.3,38.7,38.3c21.4,0,38.7-17.2,38.7-38.3
		C503.4,352.3,486,335.2,464.7,335.2z M464.8,392.5c-10.7,0.1-19.5-8.6-19.5-19.2c0-10.5,8.7-19.2,19.4-19.2c11,0,20,9.2,19.3,20.2
		C483.4,384.5,474.9,392.5,464.8,392.5z"/>
	<path d="M599.8,349.5c-2.2-13.3-14.4-23.5-28.7-23.9v-67.1c0-49.8-51.3-47.9-51.3-47.9L491,131.5c-5.6-21-24.8-35.7-46.9-35.7
		H338.9V6c0-3.3-2.7-6-6-6H6C2.7,0,0,2.7,0,6v370.9c0,3.3,2.7,6,6,6h62.4c4.8,37.7,37.3,67.1,76.8,67.1s71.9-29.3,76.8-67.1h165.9
		c4.8,37.7,37.3,67.1,76.8,67.1s71.9-29.3,76.8-67.1h29.8C596.2,382.9,601.2,357.9,599.8,349.5z M338.9,114.8h105.2
		c13.3,0,24.9,9,28.2,21.7l27,73.9H338.9V114.8z M19.4,19.2h300.1v229.8H19.4V19.2z M145.2,430.8c-32,0-58.1-25.8-58.1-57.5
		s26.1-57.5,58.1-57.5s58.1,25.8,58.1,57.5S177.3,430.8,145.2,430.8z M464.7,430.8c-32,0-58.1-25.8-58.1-57.5s26.1-57.5,58.1-57.5
		s58.1,25.8,58.1,57.5S496.7,430.8,464.7,430.8z M571.2,363.8h-29.8c-4.8-37.7-37.3-67.1-76.8-67.1s-71.9,29.3-76.8,67.1H221.9
		c-4.8-37.7-37.3-67.1-76.8-67.1s-71.9,29.3-76.8,67.1h-49V268h313.5c3.3,0,6-2.7,6-6v-32.3h183.9c16.1,0,29.1,12.9,29.1,28.7v86.2
		h18.3c5.2,0,9.8,3.5,10.6,7.9C581.1,355.5,580.5,363.8,571.2,363.8z"/>
</g>
</svg>
