<?xml version="1.0" encoding="UTF-8" standalone="no"?>
<svg
   xmlns:dc="http://purl.org/dc/elements/1.1/"
   xmlns:cc="http://creativecommons.org/ns#"
   xmlns:rdf="http://www.w3.org/1999/02/22-rdf-syntax-ns#"
   xmlns:svg="http://www.w3.org/2000/svg"
   xmlns="http://www.w3.org/2000/svg"
   xml:space="preserve"
   style="enable-background:new 0 0 450 450;"
   viewBox="0 0 450 450"
   y="0px"
   x="0px"
   id="Layer_1"
   version="1.1"><metadata
   id="metadata13"><rdf:RDF><cc:Work
       rdf:about=""><dc:format>image/svg+xml</dc:format><dc:type
         rdf:resource="http://purl.org/dc/dcmitype/StillImage" /><dc:title></dc:title></cc:Work></rdf:RDF></metadata><defs
   id="defs11" />
<g
   id="g6">
	<path
   id="path2"
   d="M376.8,136.3L228.5,46.2c-2.2-1.5-5.2-1.5-7.4,0L72.7,136.3c-2.2,1.5-4.5,5.3-3,8.3s4.5,5.3,7.4,5.3h296.7   c3.7,0,5.9-2.3,6.7-5.3C381.3,141.5,379.8,137.8,376.8,136.3z M225.5,61.2l29.7,17.9v55.6h-59.3V79.2L225.5,61.2z M181,88.1v46.6   h-77.1L181,88.1z M270,134.8V88.1l77.1,46.6H270z" />
	<path
   id="path4"
   d="M446.8,147.7L297,46.9L229.2,1.2c-0.6-0.4-1.3-0.7-2-0.9C226.5,0.1,225.7,0,225,0c-1.4,0-2.8,0.4-4.1,1.2L3.2,147.7   c-3.3,2.2-4.2,6.7-2,10s6.6,4.2,9.8,2l6.8-4.6v287.4c0,4.5,3,7.5,7.4,7.5h59.3h89h37.1h96.4h29.7h29.7h59.3c4.5,0,7.4-3,6.7-7.5   V155.3l6.5,4.4c3.3,2.2,7.7,1.3,9.8-2S450.1,149.9,446.8,147.7z M166.2,435H92v-45h22.3h51.9V435z M203.2,382.4V435H181v-52.5   c0-4.5-3-7.5-7.4-7.5h-51.9V269.9h22.3v22.5c0,4.5,3,7.5,7.4,7.5h37.1c4.5,0,7.4-3,7.4-7.5v-22.5h22.3v67.6v37.5h-7.4   C206.2,374.9,203.2,377.9,203.2,382.4z M158.7,284.9v-15H181v15H158.7z M299.7,435h-81.6v-45h7.4h7.4v22.5c0,4.5,3,7.5,7.4,7.5   h37.1c4.5,0,7.4-3,7.4-7.5V390h14.8V435z M262.6,374.9h-22.3h-7.4v-30h29.7V374.9z M270,390v15h-22.3v-15H270z M329.3,435h-14.8   v-52.5c0-4.5-3-7.5-7.4-7.5h-29.7v-37.5v-7.5h51.9V435z M359,435h-14.8V322.4c0-4.5-3-7.5-7.4-7.5H270c-4.5,0-7.4,3-7.4,7.5v7.5   h-29.7v-67.6c0-4.5-3-7.5-7.4-7.5h-37.1h-37.1h-37.1c-4.5,0-7.4,3-7.4,7.5v112.6H92V209.8h267V435z M84.6,194.8h-7.4v-15h296.7v15   h-7.4H84.6z M418.3,435h-44.5V209.8h8.8c3.3,0,6-2.7,6-6.1v-32.8c0-3.4-2.7-6.1-6-6.1H68.3c-3.3,0-6,2.7-6,6.1v32.8   c0,3.4,2.7,6.1,6,6.1h8.8v172.6V435H32.6V146L225.5,16.2L418.3,146V435z" />
</g>
</svg>