<?xml version="1.0" encoding="utf-8"?>
<!-- Generator: Adobe Illustrator 23.0.4, SVG Export Plug-In . SVG Version: 6.00 Build 0)  -->
<svg version="1.1" id="Layer_1" xmlns="http://www.w3.org/2000/svg" xmlns:xlink="http://www.w3.org/1999/xlink" x="0px" y="0px"
	 viewBox="0 0 450 450" style="enable-background:new 0 0 450 450;" xml:space="preserve">
<g>
	<path d="M443.2,0H6C2.7,0,0,2.7,0,6v438c0,3.3,2.7,6,6,6h42.5c3.3,0,6-2.7,6-6v-17.2h340.9V444c0,3.3,2.7,6,6,6h42.5
		c3.3,0,6-2.7,6-6V6.8C450,2.7,447.3,0,443.2,0z M354.5,190.2v12.3h-28.6v-12.3H354.5z M294.5,190.2h17.7v23.2h-17.7V190.2z
		 M280.9,201.8h-28.6v-12.3h28.6V201.8z M252.3,215.5h28.6v4.9c0,3.3,2.7,6,6,6h33c3.3,0,6-2.7,6-6v-4.9h28.6v63.4H252.3V215.5z
		 M368.2,182.6c0-3.3-2.7-6-6-6H245.4c-3.3,0-6,2.7-6,6v26l0,0l0,0v70.2h-25.9v-69.5l0,0l0,0v-25.2c0-3.4-1.4-6.8-6.1-6.8H90.6
		c-3.3,0-6,2.7-6,6v96.3h-30V158.2h340.9v120.7h-27.3V182.6z M199.8,190.2v12.3h-28.6v-12.3H199.8z M139.8,190.2h17.7v23.2h-17.7
		V190.2z M126.1,201.8H97.5v-12.3h28.6V201.8z M98.2,215.5h28.6v4.9c0,3.3,2.7,6,6,6h33c3.3,0,6-2.7,6-6v-4.9h28.6v63.4H98.2V215.5z
		 M395.5,144.5h-28V48.2c0-3.3-2.7-6-6-6H244.7c-3.3,0-6,2.7-6,6v26l0,0l0,0v70.2h-27.3V75l0,0l0,0V48.3c0-3.3-2.7-6-6-6H88.6
		c-3.3,0-6,2.7-6,6v96.3h-28v-131h340.9V144.5z M353.9,55.9v12.3h-28.6V55.9H353.9z M293.9,55.9h17.7v23.2h-17.7V55.9z M280.2,67.5
		h-28.6V55.9h28.6V67.5z M251.6,81.1h28.6V86c0,3.3,2.7,6,6,6h33c3.3,0,6-2.7,6-6v-4.9h28.6v63.4H251.6V81.1z M197,55.9v12.3h-28.6
		V55.9H197z M137,55.9h17.7v23.2H137V55.9z M123.4,67.5H94.8V55.9h28.6V67.5z M95.5,81.1h28.6V86c0,3.3,2.7,6,6,6h33
		c3.3,0,6-2.7,6-6v-4.9h28.6v63.4H95.5V81.1z M40.9,436.4H13.6V13.6h27.3V436.4z M200.5,324.5v12.3h-28.6v-12.3H200.5z M140.5,324.5
		h17.7v23.2h-17.7V324.5z M126.8,336.1H98.2v-12.3h28.6C126.8,323.8,126.8,336.1,126.8,336.1z M98.2,413.2v-63.4h28.6v5.6
		c0,3.3,2.7,6,6,6h33c3.3,0,6-2.7,6-6v-4.9h28.6v63.4H98.2C98.9,413.9,98.9,413.2,98.2,413.2z M355.2,324.5v12.3h-28.6v-12.3H355.2z
		 M295.2,324.5H313v23.2h-17.7L295.2,324.5L295.2,324.5z M281.6,336.1H253v-12.3h28.6V336.1z M253.6,413.2v-63.4h28.6v5.6
		c0,3.3,2.7,6,6,6h33c3.3,0,6-2.7,6-6v-4.9h28.6v63.4H253.6V413.2z M368.9,413.2v-96.3c0-3.3-2.7-6-6-6H246.1c-3.3,0-6,2.7-6,6v96.3
		h-25.9v-96.3c0-3.3-2.7-6-6-6H91.4c-3.3,0-6,2.7-6,6v96.3H54.5V292.5h340.9v120.7C395.5,413.2,368.9,413.2,368.9,413.2z
		 M436.4,436.4h-27.3V13.6h27.3V436.4z"/>
</g>
</svg>
